<?xml version="1.0" encoding="UTF-8" standalone="no"?>
<!-- Created with Inkscape (http://www.inkscape.org/) -->

<svg
   width="210mm"
   height="297mm"
   viewBox="0 0 210 297"
   version="1.1"
   id="svg1940"
   inkscape:version="1.1.1 (3bf5ae0d25, 2021-09-20)"
   sodipodi:docname="SpaceShip.svg"
   xmlns:inkscape="http://www.inkscape.org/namespaces/inkscape"
   xmlns:sodipodi="http://sodipodi.sourceforge.net/DTD/sodipodi-0.dtd"
   xmlns:xlink="http://www.w3.org/1999/xlink"
   xmlns="http://www.w3.org/2000/svg"
   xmlns:svg="http://www.w3.org/2000/svg"
   xmlns:rdf="http://www.w3.org/1999/02/22-rdf-syntax-ns#"
   xmlns:cc="http://creativecommons.org/ns#"
   xmlns:dc="http://purl.org/dc/elements/1.1/">
  <title
     id="title1031">Spaceship_SpaceFaultier</title>
  <sodipodi:namedview
     id="namedview1942"
     pagecolor="#505050"
     bordercolor="#eeeeee"
     borderopacity="1"
     inkscape:pageshadow="0"
     inkscape:pageopacity="0"
     inkscape:pagecheckerboard="0"
     inkscape:document-units="mm"
     showgrid="false"
     inkscape:zoom="0.90583672"
     inkscape:cx="309.65846"
     inkscape:cy="705.97712"
     inkscape:window-width="3840"
     inkscape:window-height="2081"
     inkscape:window-x="-9"
     inkscape:window-y="-9"
     inkscape:window-maximized="1"
     inkscape:current-layer="layer1" />
  <defs
     id="defs1937">
    <linearGradient
       gradientUnits="userSpaceOnUse"
       y2="108.13147"
       x2="75.551094"
       y1="108.94646"
       x1="136.43121"
       id="linearGradient2146"
       xlink:href="#linearGradient2136"
       inkscape:collect="always" />
    <linearGradient
       id="linearGradient2136"
       inkscape:collect="always">
      <stop
         id="stop2132"
         offset="0"
         style="stop-color:#00ccff;stop-opacity:1;" />
      <stop
         id="stop2134"
         offset="1"
         style="stop-color:#00ccff;stop-opacity:0;" />
    </linearGradient>
    <filter
       height="1.0267093"
       y="-0.013233036"
       width="1.0138538"
       x="-0.0069564375"
       id="filter2152"
       style="color-interpolation-filters:sRGB"
       inkscape:collect="always">
      <feGaussianBlur
         id="feGaussianBlur2154"
         stdDeviation="0.11738053"
         inkscape:collect="always" />
    </filter>
    <filter
       height="1.1810674"
       y="-0.090533707"
       width="1.1593141"
       x="-0.079657043"
       id="filter2034"
       style="color-interpolation-filters:sRGB"
       inkscape:collect="always">
      <feGaussianBlur
         id="feGaussianBlur2036"
         stdDeviation="1.3799714"
         inkscape:collect="always" />
    </filter>
    <linearGradient
       inkscape:collect="always"
       xlink:href="#linearGradient2136"
       id="linearGradient2639"
       gradientUnits="userSpaceOnUse"
       x1="136.43121"
       y1="108.94646"
       x2="75.551094"
       y2="108.13147" />
    <linearGradient
       inkscape:collect="always"
       xlink:href="#linearGradient2136"
       id="linearGradient2641"
       gradientUnits="userSpaceOnUse"
       x1="136.43121"
       y1="108.94646"
       x2="75.551094"
       y2="108.13147" />
    <linearGradient
       inkscape:collect="always"
       xlink:href="#linearGradient2136"
       id="linearGradient2643"
       gradientUnits="userSpaceOnUse"
       x1="136.43121"
       y1="108.94646"
       x2="75.551094"
       y2="108.13147" />
    <linearGradient
       inkscape:collect="always"
       xlink:href="#linearGradient2136"
       id="linearGradient2645"
       gradientUnits="userSpaceOnUse"
       x1="136.43121"
       y1="108.94646"
       x2="75.551094"
       y2="108.13147" />
    <linearGradient
       inkscape:collect="always"
       xlink:href="#linearGradient2136"
       id="linearGradient2647"
       gradientUnits="userSpaceOnUse"
       x1="136.43121"
       y1="108.94646"
       x2="75.551094"
       y2="108.13147" />
    <linearGradient
       inkscape:collect="always"
       xlink:href="#linearGradient2136"
       id="linearGradient2649"
       gradientUnits="userSpaceOnUse"
       x1="136.43121"
       y1="108.94646"
       x2="75.551094"
       y2="108.13147" />
    <linearGradient
       inkscape:collect="always"
       xlink:href="#linearGradient2136"
       id="linearGradient2651"
       gradientUnits="userSpaceOnUse"
       x1="136.43121"
       y1="108.94646"
       x2="75.551094"
       y2="108.13147" />
    <linearGradient
       inkscape:collect="always"
       xlink:href="#linearGradient2136"
       id="linearGradient2653"
       gradientUnits="userSpaceOnUse"
       x1="136.43121"
       y1="108.94646"
       x2="75.551094"
       y2="108.13147" />
    <linearGradient
       inkscape:collect="always"
       xlink:href="#linearGradient2136"
       id="linearGradient2655"
       gradientUnits="userSpaceOnUse"
       x1="136.43121"
       y1="108.94646"
       x2="75.551094"
       y2="108.13147" />
    <linearGradient
       inkscape:collect="always"
       xlink:href="#linearGradient2136"
       id="linearGradient2657"
       gradientUnits="userSpaceOnUse"
       x1="136.43121"
       y1="108.94646"
       x2="75.551094"
       y2="108.13147" />
    <linearGradient
       inkscape:collect="always"
       xlink:href="#linearGradient2136"
       id="linearGradient2659"
       gradientUnits="userSpaceOnUse"
       x1="136.43121"
       y1="108.94646"
       x2="75.551094"
       y2="108.13147" />
    <linearGradient
       inkscape:collect="always"
       xlink:href="#linearGradient2136"
       id="linearGradient2661"
       gradientUnits="userSpaceOnUse"
       x1="136.43121"
       y1="108.94646"
       x2="75.551094"
       y2="108.13147" />
    <linearGradient
       inkscape:collect="always"
       xlink:href="#linearGradient2136"
       id="linearGradient2663"
       gradientUnits="userSpaceOnUse"
       x1="136.43121"
       y1="108.94646"
       x2="75.551094"
       y2="108.13147" />
  </defs>
  <g
     inkscape:label="Ebene 1"
     inkscape:groupmode="layer"
     id="layer1">
    <g
       inkscape:label="Engine"
       id="g1892"
       transform="matrix(0.16198296,-0.30406771,0.1626994,0.30272875,-22.208842,167.73633)"
       style="stroke-width:1.00092;stroke-miterlimit:4;stroke-dasharray:none">
      <g
         id="g1884"
         inkscape:label="Fier"
         style="stroke-width:1.00092;stroke-miterlimit:4;stroke-dasharray:none">
        <path
           d="m 182.44377,402.77302 -20.57168,-47.51946 -47.52355,-20.5699 c 0,0 -88.825089,5.28938 -70.061943,129.4191 0.821084,5.41862 5.054087,9.65455 10.473221,10.47231 124.143602,18.7614 127.683952,-71.80205 127.683952,-71.80205 z"
           fill="#ffcd38"
           id="path1878"
           style="fill:#00aad4;stroke-width:1.00092;stroke-miterlimit:4;stroke-dasharray:none"
           sodipodi:nodetypes="cccccc" />
        <path
           d="m 52.169673,462.53024 c 0.359375,-32.4375 18.726876,-69.80044 33.16047,-88.72231 13.0625,-17.125 29.789057,-25.78125 40.203117,-29.8086 l 33.09375,12.1211 12.1211,33.09765 c -4.02735,10.41016 -12.6836,27.13672 -29.8086,40.19922 -18.92187,14.4375 -56.32843,32.75747 -88.769837,33.11294 z"
           fill="#da5b65"
           id="path1880"
           style="fill:#00ccff;stroke-width:1.00092;stroke-miterlimit:4;stroke-dasharray:none"
           sodipodi:nodetypes="ccccccc" />
        <path
           sodipodi:nodetypes="ccccccc"
           style="fill:#80e5ff;stroke-width:1.00092;stroke-miterlimit:4;stroke-dasharray:none"
           id="path1882"
           fill="#da5b65"
           d="m 67.702724,447.0087 c 0.279848,-25.2593 14.582745,-54.35407 25.822282,-69.08866 10.171854,-13.33535 23.196944,-20.07603 31.306444,-23.21216 l 25.77032,9.43878 9.43879,25.77337 c -3.13613,8.10646 -9.87681,21.13154 -23.21216,31.3034 -14.73459,11.24258 -43.863333,25.50846 -69.125676,25.78527 z" />
      </g>
      <path
         id="path1886"
         fill="#3c474d"
         d="m 142.54279,302.13549 c 0,0 -16.34766,-2.01563 -32.30078,2.19922 -11.007808,2.91015 -14.636718,16.75 -6.58594,24.80078 l 82.69531,82.69531 c 8.05469,8.05469 21.89063,4.42578 24.80078,-6.58594 4.21485,-15.94922 2.20313,-32.29687 2.20313,-32.29687 z"
         sodipodi:nodetypes="ccssscc"
         inkscape:label="Engine2"
         style="stroke-width:1.00092;stroke-miterlimit:4;stroke-dasharray:none" />
      <path
         inkscape:label="Engine1"
         sodipodi:nodetypes="ccssscc"
         d="m 142.54279,302.13549 c 0,0 -16.34766,-2.01563 -32.30078,2.19922 -11.007808,2.91015 -14.636718,16.75 -6.58594,24.80078 l 82.69531,82.69531 c 8.05469,8.05469 21.89063,4.42578 24.80078,-6.58594 4.21485,-15.94922 2.20313,-32.29687 2.20313,-32.29687 z"
         fill="#3c474d"
         id="path1888"
         style="fill:#666666;stroke-width:1.00092;stroke-miterlimit:4;stroke-dasharray:none" />
      <path
         id="path1890"
         fill="#3c474d"
         d="m 148.69017,308.44845 c 0,0 -15.76419,0.69072 -32.15838,7.44163 -11.31244,4.66003 -17.147166,18.85804 -10.53743,25.45615 l 67.89331,67.774 c 6.61294,6.60134 20.82707,0.77247 25.49193,-10.52794 6.75636,-16.36733 7.44803,-32.10855 7.44803,-32.10855 z"
         sodipodi:nodetypes="ccssscc"
         inkscape:label="Engine1"
         style="fill:#333333;stroke-width:1.00092;stroke-miterlimit:4;stroke-dasharray:none" />
    </g>
    <g
       transform="matrix(1.1351051,0,0,1.0968085,2.3054015,-1.0746584)"
       inkscape:label="Wing"
       id="g1736">
      <path
         style="stroke-width:0.282255"
         sodipodi:nodetypes="zccccz"
         d="m 55.88572,94.088958 c -0.381061,9.716592 -21.401223,33.175932 -23.23063,85.621692 19.728972,0.0598 29.803067,-0.0331 29.803067,-0.0331 l 0.0429,-35.55429 0.0207,-58.017507 c 0,0 -6.254972,-1.733421 -6.636036,7.983175 z"
         fill="#d4d2d3"
         id="path1654" />
      <path
         sodipodi:nodetypes="ccsscc"
         d="m 61.99368,179.61138 0.02807,20.02775 -21.666616,0.0733 c -4.726283,0.016 -7.514689,-8.21793 -7.699546,-13.35235 -0.07709,-2.14109 0.01196,-4.4322 -4.98e-4,-6.64945 z"
         fill="#3c474d"
         id="path1672"
         style="stroke-width:0.33569" />
    </g>
    <g
       style="stroke-width:1.00092;stroke-miterlimit:4;stroke-dasharray:none"
       transform="matrix(0.16198296,-0.30406771,0.1626994,0.30272875,74.22516,167.66331)"
       id="g1956"
       inkscape:label="Engine">
      <g
         style="stroke-width:1.00092;stroke-miterlimit:4;stroke-dasharray:none"
         inkscape:label="Fier"
         id="g1948">
        <path
           sodipodi:nodetypes="cccccc"
           style="fill:#00aad4;stroke-width:1.00092;stroke-miterlimit:4;stroke-dasharray:none"
           id="path1942"
           fill="#ffcd38"
           d="m 182.44377,402.77302 -20.57168,-47.51946 -47.52355,-20.5699 c 0,0 -88.825089,5.28938 -70.061943,129.4191 0.821084,5.41862 5.054087,9.65455 10.473221,10.47231 124.143602,18.7614 127.683952,-71.80205 127.683952,-71.80205 z" />
        <path
           sodipodi:nodetypes="ccccccc"
           style="fill:#00ccff;stroke-width:1.00092;stroke-miterlimit:4;stroke-dasharray:none"
           id="path1944"
           fill="#da5b65"
           d="m 52.169673,462.53024 c 0.359375,-32.4375 18.726876,-69.80044 33.16047,-88.72231 13.0625,-17.125 29.789057,-25.78125 40.203117,-29.8086 l 33.09375,12.1211 12.1211,33.09765 c -4.02735,10.41016 -12.6836,27.13672 -29.8086,40.19922 -18.92187,14.4375 -56.32843,32.75747 -88.769837,33.11294 z" />
        <path
           d="m 67.702724,447.0087 c 0.279848,-25.2593 14.582745,-54.35407 25.822282,-69.08866 10.171854,-13.33535 23.196944,-20.07603 31.306444,-23.21216 l 25.77032,9.43878 9.43879,25.77337 c -3.13613,8.10646 -9.87681,21.13154 -23.21216,31.3034 -14.73459,11.24258 -43.863333,25.50846 -69.125676,25.78527 z"
           fill="#da5b65"
           id="path1946"
           style="fill:#80e5ff;stroke-width:1.00092;stroke-miterlimit:4;stroke-dasharray:none"
           sodipodi:nodetypes="ccccccc" />
      </g>
      <path
         style="stroke-width:1.00092;stroke-miterlimit:4;stroke-dasharray:none"
         inkscape:label="Engine2"
         sodipodi:nodetypes="ccssscc"
         d="m 142.54279,302.13549 c 0,0 -16.34766,-2.01563 -32.30078,2.19922 -11.007808,2.91015 -14.636718,16.75 -6.58594,24.80078 l 82.69531,82.69531 c 8.05469,8.05469 21.89063,4.42578 24.80078,-6.58594 4.21485,-15.94922 2.20313,-32.29687 2.20313,-32.29687 z"
         fill="#3c474d"
         id="path1950" />
      <path
         style="fill:#666666;stroke-width:1.00092;stroke-miterlimit:4;stroke-dasharray:none"
         id="path1952"
         fill="#3c474d"
         d="m 142.54279,302.13549 c 0,0 -16.34766,-2.01563 -32.30078,2.19922 -11.007808,2.91015 -14.636718,16.75 -6.58594,24.80078 l 82.69531,82.69531 c 8.05469,8.05469 21.89063,4.42578 24.80078,-6.58594 4.21485,-15.94922 2.20313,-32.29687 2.20313,-32.29687 z"
         sodipodi:nodetypes="ccssscc"
         inkscape:label="Engine1" />
      <path
         style="fill:#333333;stroke-width:1.00092;stroke-miterlimit:4;stroke-dasharray:none"
         inkscape:label="Engine1"
         sodipodi:nodetypes="ccssscc"
         d="m 148.69017,308.44845 c 0,0 -15.76419,0.69072 -32.15838,7.44163 -11.31244,4.66003 -17.147166,18.85804 -10.53743,25.45615 l 67.89331,67.774 c 6.61294,6.60134 20.82707,0.77247 25.49193,-10.52794 6.75636,-16.36733 7.44803,-32.10855 7.44803,-32.10855 z"
         fill="#3c474d"
         id="path1954" />
    </g>
    <g
       transform="matrix(-1.1351051,0,0,1.0968085,214.97138,-1.0746584)"
       id="g1753"
       inkscape:label="Wing">
      <path
         id="path1749"
         fill="#d4d2d3"
         d="m 55.88572,94.088958 c -0.381061,9.716592 -21.401223,33.175932 -23.23063,85.621692 19.728972,0.0598 29.803067,-0.0331 29.803067,-0.0331 l 0.0429,-35.55429 0.0207,-58.017507 c 0,0 -6.254972,-1.733421 -6.636036,7.983175 z"
         sodipodi:nodetypes="zccccz"
         style="stroke-width:0.282255" />
      <path
         style="stroke-width:0.33569"
         id="path1751"
         fill="#3c474d"
         d="m 61.99368,179.61138 0.02807,20.02775 -21.666616,0.0733 c -4.726283,0.016 -7.514689,-8.21793 -7.699546,-13.35235 -0.07709,-2.14109 0.01196,-4.4322 -4.98e-4,-6.64945 z"
         sodipodi:nodetypes="ccsscc" />
    </g>
    <path
       inkscape:label="Body"
       style="fill:#e6e6e6;stroke-width:0.374561"
       id="path1658"
       fill="#efedee"
       d="m 112.32983,1.5039846 c -1.96858,-1.78309199 -4.44616,-1.77372999 -6.4094,0.02222 C 97.042047,9.6225766 72.776201,34.217537 72.816114,61.018736 L 73.008829,189.85011 145.80201,189.61337 145.61016,60.780734 C 145.57025,33.979538 121.23222,9.5447426 112.32983,1.5039846 Z"
       sodipodi:nodetypes="cccccsc" />
    <g
       inkscape:label="Engine"
       id="g1972"
       transform="matrix(0.26187532,-0.30158208,0.26303356,0.30025408,-25.409813,168.45609)"
       style="stroke-width:1.00092;stroke-miterlimit:4;stroke-dasharray:none">
      <g
         id="g1964"
         inkscape:label="Fier"
         style="stroke-width:1.00092;stroke-miterlimit:4;stroke-dasharray:none">
        <path
           d="m 182.44377,402.77302 -20.57168,-47.51946 -47.52355,-20.5699 c 0,0 -88.825089,5.28938 -70.061943,129.4191 0.821084,5.41862 5.054087,9.65455 10.473221,10.47231 124.143602,18.7614 127.683952,-71.80205 127.683952,-71.80205 z"
           fill="#ffcd38"
           id="path1958"
           style="fill:#00aad4;stroke-width:1.00092;stroke-miterlimit:4;stroke-dasharray:none"
           sodipodi:nodetypes="cccccc" />
        <path
           d="m 52.169673,462.53024 c 0.359375,-32.4375 18.726876,-69.80044 33.16047,-88.72231 13.0625,-17.125 29.789057,-25.78125 40.203117,-29.8086 l 33.09375,12.1211 12.1211,33.09765 c -4.02735,10.41016 -12.6836,27.13672 -29.8086,40.19922 -18.92187,14.4375 -56.32843,32.75747 -88.769837,33.11294 z"
           fill="#da5b65"
           id="path1960"
           style="fill:#00ccff;stroke-width:1.00092;stroke-miterlimit:4;stroke-dasharray:none"
           sodipodi:nodetypes="ccccccc" />
        <path
           sodipodi:nodetypes="ccccccc"
           style="fill:#80e5ff;stroke-width:1.00092;stroke-miterlimit:4;stroke-dasharray:none"
           id="path1962"
           fill="#da5b65"
           d="m 67.702724,447.0087 c 0.279848,-25.2593 14.582745,-54.35407 25.822282,-69.08866 10.171854,-13.33535 23.196944,-20.07603 31.306444,-23.21216 l 25.77032,9.43878 9.43879,25.77337 c -3.13613,8.10646 -9.87681,21.13154 -23.21216,31.3034 -14.73459,11.24258 -43.863333,25.50846 -69.125676,25.78527 z" />
      </g>
      <path
         id="path1966"
         fill="#3c474d"
         d="m 142.54279,302.13549 c 0,0 -16.34766,-2.01563 -32.30078,2.19922 -11.007808,2.91015 -14.636718,16.75 -6.58594,24.80078 l 82.69531,82.69531 c 8.05469,8.05469 21.89063,4.42578 24.80078,-6.58594 4.21485,-15.94922 2.20313,-32.29687 2.20313,-32.29687 z"
         sodipodi:nodetypes="ccssscc"
         inkscape:label="Engine2"
         style="stroke-width:1.00092;stroke-miterlimit:4;stroke-dasharray:none" />
      <path
         inkscape:label="Engine1"
         sodipodi:nodetypes="ccssscc"
         d="m 142.54279,302.13549 c 0,0 -16.34766,-2.01563 -32.30078,2.19922 -11.007808,2.91015 -14.636718,16.75 -6.58594,24.80078 l 82.69531,82.69531 c 8.05469,8.05469 21.89063,4.42578 24.80078,-6.58594 4.21485,-15.94922 2.20313,-32.29687 2.20313,-32.29687 z"
         fill="#3c474d"
         id="path1968"
         style="fill:#666666;stroke-width:1.00092;stroke-miterlimit:4;stroke-dasharray:none" />
      <path
         id="path1970"
         fill="#3c474d"
         d="m 148.69017,308.44845 c 0,0 -15.76419,0.69072 -32.15838,7.44163 -11.31244,4.66003 -17.147166,18.85804 -10.53743,25.45615 l 67.89331,67.774 c 6.61294,6.60134 20.82707,0.77247 25.49193,-10.52794 6.75636,-16.36733 7.44803,-32.10855 7.44803,-32.10855 z"
         sodipodi:nodetypes="ccssscc"
         inkscape:label="Engine1"
         style="fill:#333333;stroke-width:1.00092;stroke-miterlimit:4;stroke-dasharray:none" />
    </g>
    <path
       id="rect1744"
       style="fill:#3c474d;stroke:#000000;stroke-width:0"
       inkscape:label="Body End"
       d="m 74.552834,189.62157 h 70.512946 c 1.26951,0 2.29154,1.11406 2.29154,2.49789 v 26.64763 c 0,1.38383 -1.02203,2.49789 -2.29154,2.49789 H 74.552834 c -1.269513,0 -2.29154,-1.11406 -2.29154,-2.49789 v -26.64763 c 0,-1.38383 1.022027,-2.49789 2.29154,-2.49789 z" />
    <path
       sodipodi:nodetypes="ccccc"
       d="m 111.69935,10.353541 c -1.78137,-1.6130064 -4.02334,-1.6045374 -5.79989,0.0201 -8.034073,7.324079 -29.992318,29.57298 -29.956201,53.817673 49.374821,-0.358701 27.489821,-0.412449 65.871581,-0.215298 -0.0361,-24.244688 -22.05968,-46.348701 -30.11549,-53.622471 z"
       fill="#efedee"
       id="path1876"
       style="fill:#374548;stroke-width:0.338886"
       inkscape:label="Body" />
    <g
       aria-label="Space Faultier"
       transform="matrix(-1.0872519,0,0,-1.1229707,222.7062,210.60675)"
       id="text2040"
       style="font-size:10.1368px;line-height:1.25;fill:#ff00ff;stroke:url(#linearGradient2146);stroke-width:0.253419;filter:url(#filter2152)">
      <path
         d="m 129.36147,103.4017 q -0.42341,-0.0785 -0.80011,-0.35463 -0.37761,-0.27132 -0.59893,-0.6798 -0.23933,-0.44705 -0.31805,-1.00026 -0.0796,-0.54834 0.0556,-1.27835 0.14518,-0.783556 0.40751,-1.384319 0.26142,-0.595896 0.66849,-1.189976 l 1.20696,0.223627 -0.0126,0.06813 q -0.55938,0.465184 -0.94104,1.13948 -0.38166,0.674295 -0.49888,1.306968 -0.16592,0.89549 0.0779,1.45412 0.24293,0.56351 0.80261,0.6672 0.48181,0.0893 0.75473,-0.10683 0.27202,-0.19122 0.48783,-0.64959 0.16496,-0.34697 0.30758,-0.76352 0.14172,-0.41169 0.32742,-0.870596 0.38295,-0.92575 0.96106,-1.301887 0.58207,-0.370368 1.37536,-0.223388 0.91009,0.168622 1.34676,1.044878 0.44154,0.877153 0.22242,2.059783 -0.14157,0.76408 -0.40569,1.37458 -0.26413,0.61049 -0.56935,1.06236 l -1.13882,-0.211 0.0126,-0.0681 q 0.42706,-0.34875 0.78113,-0.98285 0.35805,-0.62833 0.4888,-1.33401 0.14337,-0.77382 -0.0904,-1.30541 -0.23464,-0.526723 -0.74079,-0.620502 -0.45261,-0.08386 -0.75383,0.101954 -0.30122,0.185814 -0.5466,0.749438 -0.12584,0.29885 -0.32958,0.8551 -0.20374,0.55624 -0.37988,0.93638 -0.36383,0.76821 -0.87272,1.09677 -0.50888,0.32856 -1.28757,0.18428 z"
         id="path1728"
         style="stroke:url(#linearGradient2639)" />
      <path
         d="m 126.65042,110.05009 q -0.58244,-0.33748 -0.9696,-0.78491 -0.38288,-0.44495 -0.54074,-0.94257 -0.15314,-0.46628 -0.1054,-0.95346 0.0496,-0.48041 0.2977,-0.90867 0.21588,-0.37259 0.47344,-0.62951 0.25507,-0.25264 0.60752,-0.46601 l -2.00427,-1.16133 0.46651,-0.80513 6.54815,3.79415 -0.46651,0.80514 -0.50107,-0.29033 q 0.0837,0.47753 0.0328,0.98003 -0.0491,0.50927 -0.31214,0.96323 -0.50125,0.86509 -1.43442,0.96509 -0.93137,0.10675 -2.09196,-0.56572 z m 0.45999,-0.84324 q 0.86509,0.50125 1.46458,0.4539 0.59948,-0.0474 0.95433,-0.65978 0.201,-0.34689 0.25459,-0.78492 0.0536,-0.43802 -0.004,-0.90067 l -2.71091,-1.57076 q -0.35269,0.25328 -0.5498,0.46513 -0.1996,0.21613 -0.38075,0.52877 -0.38959,0.67237 -0.154,1.31228 0.23559,0.6399 1.12638,1.15605 z"
         id="path1730"
         style="stroke:url(#linearGradient2641)" />
      <path
         d="m 120.0678,112.66382 0.67604,-0.6322 0.4023,0.43021 q 0.0329,-0.14598 0.0836,-0.40342 0.0504,-0.25044 0.13417,-0.45075 0.0921,-0.24204 0.26197,-0.50249 0.16643,-0.26407 0.46287,-0.54129 0.54589,-0.51048 1.26356,-0.50394 0.71766,0.007 1.24167,0.56689 0.42935,0.45912 0.49783,0.92366 0.0682,0.47154 -0.14475,0.97567 -0.21662,0.50752 -0.67949,1.0488 -0.46288,0.54129 -1.02872,1.12465 l 0.098,0.10484 q 0.21637,0.23137 0.44151,0.30545 0.22152,0.0775 0.45449,0.0222 0.22237,-0.0521 0.45186,-0.21248 0.2295,-0.16039 0.45002,-0.36662 0.26752,-0.25017 0.52889,-0.63012 0.26474,-0.37633 0.49033,-0.83802 l 0.0362,-0.0338 0.64572,0.69049 q -0.14813,0.24017 -0.46325,0.65684 -0.31512,0.41667 -0.68026,0.75812 -0.42658,0.39892 -0.80872,0.62074 -0.38236,0.22882 -0.77263,0.27527 -0.38327,0.0467 -0.74936,-0.10565 -0.36609,-0.15235 -0.73121,-0.54278 z m 1.60574,0.36197 1.0514,1.12432 q 0.294,-0.30882 0.68317,-0.74052 0.38555,-0.42831 0.56714,-0.72689 0.21508,-0.35699 0.23018,-0.70317 0.0185,-0.34256 -0.26888,-0.64985 -0.32455,-0.34705 -0.69988,-0.32811 -0.37196,0.0225 -0.80216,0.42486 -0.3579,0.33469 -0.52588,0.74928 -0.16459,0.41821 -0.23509,0.85008 z"
         id="path1732"
         style="stroke:url(#linearGradient2643)" />
      <path
         d="m 115.15569,115.95252 q 0.29947,-0.42 0.60784,-0.73181 0.30403,-0.30941 0.71557,-0.53687 0.52418,-0.2897 1.04551,-0.37989 0.52372,-0.0859 1.00801,0.0537 0.48862,0.13713 0.92527,0.51788 0.43664,0.38075 0.78859,1.01756 0.65602,1.18697 0.37972,2.2219 -0.28063,1.03732 -1.35064,1.62869 -0.41587,0.22985 -0.87906,0.33315 -0.46752,0.1057 -0.89446,0.12111 l -0.5004,-0.90539 0.0433,-0.0239 q 0.53297,0.0843 1.01771,0.02 0.4804,-0.0619 0.85729,-0.27022 0.69312,-0.38308 0.83742,-1.0736 0.14236,-0.68379 -0.35564,-1.58485 -0.48363,-0.87506 -1.13448,-1.13177 -0.65279,-0.24998 -1.36324,0.14267 -0.24693,0.13647 -0.4666,0.34271 -0.21968,0.20624 -0.36582,0.42274 -0.12733,0.18913 -0.22822,0.37496 -0.0985,0.19016 -0.14876,0.31408 l -0.0433,0.0239 z"
         id="path1734"
         style="stroke:url(#linearGradient2645)" />
      <path
         d="m 110.11914,119.89266 3.92198,-1.10077 q -0.13777,-0.49085 -0.38848,-0.81633 -0.24938,-0.32071 -0.57226,-0.48199 -0.312,-0.15919 -0.68245,-0.1786 -0.37522,-0.0181 -0.78505,0.097 -0.54326,0.15247 -1.0311,0.52073 -0.49127,0.37437 -0.66593,0.64958 l -0.0477,0.0134 -0.27419,-0.97692 q 0.39922,-0.31768 0.83489,-0.57877 0.43566,-0.26108 0.9551,-0.40687 1.3248,-0.37182 2.26884,0.13434 0.94538,0.51094 1.31587,1.83097 0.36648,1.30574 -0.12824,2.27227 -0.49948,0.96787 -1.66225,1.29422 -1.077,0.30228 -1.83494,-0.16359 -0.7627,-0.46452 -1.08772,-1.62253 z m 1.06468,0.44146 q 0.20272,0.70395 0.6637,0.99098 0.45622,0.28837 1.17104,0.0877 0.71958,-0.20197 1.02944,-0.74647 0.30509,-0.54316 0.18572,-1.18826 z"
         id="path1736"
         style="stroke:url(#linearGradient2647)" />
      <path
         d="m 99.094971,123.71057 3.713559,0.31691 0.17676,-2.07131 -3.190799,-0.27229 0.07407,-0.86798 3.190799,0.2723 0.30176,-3.53602 0.97647,0.0833 -0.62666,7.34328 -4.690032,-0.40024 z"
         id="path1738"
         style="stroke:url(#linearGradient2649)" />
      <path
         d="m 95.015589,115.72046 0.881473,0.2823 -0.17965,0.56094 q 0.143509,-0.0424 0.393,-0.1236 0.243268,-0.078 0.458992,-0.10247 0.256269,-0.0375 0.566454,-0.0161 0.311694,0.0167 0.698222,0.14046 0.711778,0.22796 1.055756,0.85785 0.343979,0.6299 0.109981,1.36053 -0.191728,0.59865 -0.564025,0.8848 -0.37852,0.28935 -0.922545,0.349 -0.548739,0.0581 -1.246961,-0.0823 -0.698222,-0.14046 -1.483357,-0.35034 l -0.04378,0.1367 q -0.09662,0.30168 -0.05161,0.53438 0.0403,0.23119 0.202043,0.40773 0.153828,0.1688 0.405721,0.29105 0.251894,0.12225 0.539433,0.21434 0.348818,0.11172 0.807964,0.15482 0.457636,0.0478 0.970728,0.0199 l 0.04714,0.0151 -0.288346,0.90032 q -0.281902,-0.0123 -0.799307,-0.0845 -0.517405,-0.0722 -0.993495,-0.22463 -0.556224,-0.17814 -0.936128,-0.40376 -0.386127,-0.22241 -0.616854,-0.54058 -0.227522,-0.31194 -0.272871,-0.70586 -0.04535,-0.39393 0.117696,-0.90301 z m 0.466315,1.57859 -0.469505,1.46598 q 0.412931,0.10626 0.979538,0.23575 0.561893,0.12799 0.911112,0.14108 0.416537,0.0139 0.726199,-0.14162 0.308152,-0.15078 0.436473,-0.55145 0.144928,-0.45252 -0.0545,-0.77105 -0.200934,-0.31382 -0.761872,-0.49348 -0.466662,-0.14945 -0.910558,-0.0941 -0.445405,0.06 -0.856891,0.20891 z"
         id="path1740"
         style="stroke:url(#linearGradient2651)" />
      <path
         d="m 89.501782,112.50778 0.784163,0.50096 -0.330424,0.51722 q 0.596107,-0.0597 1.065579,0.005 0.469473,0.065 0.907437,0.34478 0.734111,0.46899 0.857753,1.17644 0.120978,0.71162 -0.433282,1.5792 l -1.931916,3.02404 -0.784163,-0.50097 1.694756,-2.65281 q 0.2265,-0.35454 0.355679,-0.63029 0.126514,-0.27159 0.132648,-0.52023 0.0046,-0.25547 -0.121434,-0.45348 -0.126063,-0.198 -0.468092,-0.41651 -0.304489,-0.19452 -0.764461,-0.26518 -0.464143,-0.0733 -0.934193,-0.0271 l -2.222369,3.47868 -0.784164,-0.50096 z"
         id="path1742"
         style="stroke:url(#linearGradient2653)" />
      <path
         d="m 87.493507,110.57603 0.668259,0.64754 -5.359443,5.5309 -0.668258,-0.64754 z"
         id="path1744"
         style="stroke:url(#linearGradient2655)" />
      <path
         d="m 84.475188,106.96037 q 0.212768,0.16837 0.435415,0.39119 0.219678,0.21885 0.365122,0.41294 0.507569,0.6773 0.407346,1.30289 -0.100223,0.62559 -0.904272,1.22814 l -2.352734,1.76314 0.376967,0.50302 -0.625812,0.46899 -0.376966,-0.50303 -1.271427,0.95281 -0.558029,-0.74464 1.271427,-0.95281 -1.151677,-1.5368 0.625811,-0.46898 1.151677,1.5368 2.016063,-1.51083 q 0.348553,-0.26121 0.534722,-0.42546 0.182208,-0.16129 0.281286,-0.38398 0.09313,-0.20587 0.05559,-0.41278 -0.04447,-0.2079 -0.278957,-0.52081 -0.136539,-0.18219 -0.336442,-0.34165 -0.203864,-0.15648 -0.304812,-0.21691 l -0.02968,-0.0396 z"
         id="path1746"
         style="stroke:url(#linearGradient2657)" />
      <path
         d="m 77.811895,107.99331 0.481588,0.93228 -0.857518,0.44297 -0.481589,-0.93228 z m 5.761639,-2.90945 0.427069,0.82673 -4.912041,2.53743 -0.427069,-0.82674 z"
         id="path1748"
         style="stroke:url(#linearGradient2659)" />
      <path
         d="m 79.015933,99.592347 1.000014,3.948873 q 0.494209,-0.12515 0.825999,-0.36746 0.326992,-0.24109 0.496486,-0.55972 0.167127,-0.30783 0.196011,-0.67766 0.02767,-0.37463 -0.07683,-0.78727 -0.13852,-0.54699 -0.494171,-1.0441 -0.361665,-0.500689 -0.632322,-0.682334 l -0.01215,-0.04798 0.98362,-0.249092 q 0.307359,0.40722 0.557202,0.84943 0.249843,0.442206 0.382287,0.965206 0.337794,1.33388 -0.192375,2.26466 -0.534967,0.93198 -1.864053,1.26856 -1.314692,0.33294 -2.268241,-0.18636 -0.954764,-0.52409 -1.251245,-1.69484 -0.274609,-1.08438 0.210506,-1.83015 0.4839,-0.75056 1.649849,-1.045822 z m -0.468572,1.053033 q -0.708911,0.18463 -1.007644,0.63812 -0.299949,0.44868 -0.117686,1.1684 0.183477,0.72452 0.71987,1.04821 0.535177,0.3189 1.183113,0.21608 z"
         id="path1750"
         style="stroke:url(#linearGradient2661)" />
      <path
         d="m 77.193644,93.931305 -0.0013,0.04948 q -0.05486,0.206533 -0.07977,0.403939 -0.02974,0.19233 -0.03665,0.459519 -0.01114,0.430472 0.171451,0.836251 0.177646,0.405652 0.469865,0.784562 l 3.923725,0.101575 -0.02408,0.930215 -5.526862,-0.143077 0.02408,-0.930214 0.816412,0.02113 q -0.430969,-0.565698 -0.603156,-0.991013 -0.177006,-0.430392 -0.165606,-0.870759 0.0063,-0.24245 0.02394,-0.350921 0.01271,-0.108598 0.05299,-0.325412 z"
         id="path1752"
         style="stroke:url(#linearGradient2663)" />
    </g>
    <g
       aria-label="Space Faultier"
       transform="matrix(-1.0852125,0,0,-1.0980633,222.43716,207.83877)"
       id="text1980"
       style="font-size:10.1368px;line-height:1.25;fill:#cccccc;stroke-width:0.253419">
      <path
         d="m 129.36147,103.4017 q -0.42341,-0.0785 -0.80011,-0.35463 -0.37761,-0.27132 -0.59893,-0.6798 -0.23933,-0.44705 -0.31805,-1.00026 -0.0796,-0.54834 0.0556,-1.27835 0.14518,-0.783556 0.40751,-1.384319 0.26142,-0.595896 0.66849,-1.189976 l 1.20696,0.223627 -0.0126,0.06813 q -0.55938,0.465184 -0.94104,1.13948 -0.38166,0.674295 -0.49888,1.306968 -0.16592,0.89549 0.0779,1.45412 0.24293,0.56351 0.80261,0.6672 0.48181,0.0893 0.75473,-0.10683 0.27202,-0.19122 0.48783,-0.64959 0.16496,-0.34697 0.30758,-0.76352 0.14172,-0.41169 0.32742,-0.870596 0.38295,-0.92575 0.96106,-1.301887 0.58207,-0.370368 1.37536,-0.223388 0.91009,0.168622 1.34676,1.044878 0.44154,0.877153 0.22242,2.059783 -0.14157,0.76408 -0.40569,1.37458 -0.26413,0.61049 -0.56935,1.06236 l -1.13882,-0.211 0.0126,-0.0681 q 0.42706,-0.34875 0.78113,-0.98285 0.35805,-0.62833 0.4888,-1.33401 0.14337,-0.77382 -0.0904,-1.30541 -0.23464,-0.526723 -0.74079,-0.620502 -0.45261,-0.08386 -0.75383,0.101954 -0.30122,0.185814 -0.5466,0.749438 -0.12584,0.29885 -0.32958,0.8551 -0.20374,0.55624 -0.37988,0.93638 -0.36383,0.76821 -0.87272,1.09677 -0.50888,0.32856 -1.28757,0.18428 z"
         id="path1755" />
      <path
         d="m 126.65042,110.05009 q -0.58244,-0.33748 -0.9696,-0.78491 -0.38288,-0.44495 -0.54074,-0.94257 -0.15314,-0.46628 -0.1054,-0.95346 0.0496,-0.48041 0.2977,-0.90867 0.21588,-0.37259 0.47344,-0.62951 0.25507,-0.25264 0.60752,-0.46601 l -2.00427,-1.16133 0.46651,-0.80513 6.54815,3.79415 -0.46651,0.80514 -0.50107,-0.29033 q 0.0837,0.47753 0.0328,0.98003 -0.0491,0.50927 -0.31214,0.96323 -0.50125,0.86509 -1.43442,0.96509 -0.93137,0.10675 -2.09196,-0.56572 z m 0.45999,-0.84324 q 0.86509,0.50125 1.46458,0.4539 0.59948,-0.0474 0.95433,-0.65978 0.201,-0.34689 0.25459,-0.78492 0.0536,-0.43802 -0.004,-0.90067 l -2.71091,-1.57076 q -0.35269,0.25328 -0.5498,0.46513 -0.1996,0.21613 -0.38075,0.52877 -0.38959,0.67237 -0.154,1.31228 0.23559,0.6399 1.12638,1.15605 z"
         id="path1757" />
      <path
         d="m 120.0678,112.66382 0.67604,-0.6322 0.4023,0.43021 q 0.0329,-0.14598 0.0836,-0.40342 0.0504,-0.25044 0.13417,-0.45075 0.0921,-0.24204 0.26197,-0.50249 0.16643,-0.26407 0.46287,-0.54129 0.54589,-0.51048 1.26356,-0.50394 0.71766,0.007 1.24167,0.56689 0.42935,0.45912 0.49783,0.92366 0.0682,0.47154 -0.14475,0.97567 -0.21662,0.50752 -0.67949,1.0488 -0.46288,0.54129 -1.02872,1.12465 l 0.098,0.10484 q 0.21637,0.23137 0.44151,0.30545 0.22152,0.0775 0.45449,0.0222 0.22237,-0.0521 0.45186,-0.21248 0.2295,-0.16039 0.45002,-0.36662 0.26752,-0.25017 0.52889,-0.63012 0.26474,-0.37633 0.49033,-0.83802 l 0.0362,-0.0338 0.64572,0.69049 q -0.14813,0.24017 -0.46325,0.65684 -0.31512,0.41667 -0.68026,0.75812 -0.42658,0.39892 -0.80872,0.62074 -0.38236,0.22882 -0.77263,0.27527 -0.38327,0.0467 -0.74936,-0.10565 -0.36609,-0.15235 -0.73121,-0.54278 z m 1.60574,0.36197 1.0514,1.12432 q 0.294,-0.30882 0.68317,-0.74052 0.38555,-0.42831 0.56714,-0.72689 0.21508,-0.35699 0.23018,-0.70317 0.0185,-0.34256 -0.26888,-0.64985 -0.32455,-0.34705 -0.69988,-0.32811 -0.37196,0.0225 -0.80216,0.42486 -0.3579,0.33469 -0.52588,0.74928 -0.16459,0.41821 -0.23509,0.85008 z"
         id="path1759" />
      <path
         d="m 115.15569,115.95252 q 0.29947,-0.42 0.60784,-0.73181 0.30403,-0.30941 0.71557,-0.53687 0.52418,-0.2897 1.04551,-0.37989 0.52372,-0.0859 1.00801,0.0537 0.48862,0.13713 0.92527,0.51788 0.43664,0.38075 0.78859,1.01756 0.65602,1.18697 0.37972,2.2219 -0.28063,1.03732 -1.35064,1.62869 -0.41587,0.22985 -0.87906,0.33315 -0.46752,0.1057 -0.89446,0.12111 l -0.5004,-0.90539 0.0433,-0.0239 q 0.53297,0.0843 1.01771,0.02 0.4804,-0.0619 0.85729,-0.27022 0.69312,-0.38308 0.83742,-1.0736 0.14236,-0.68379 -0.35564,-1.58485 -0.48363,-0.87506 -1.13448,-1.13177 -0.65279,-0.24998 -1.36324,0.14267 -0.24693,0.13647 -0.4666,0.34271 -0.21968,0.20624 -0.36582,0.42274 -0.12733,0.18913 -0.22822,0.37496 -0.0985,0.19016 -0.14876,0.31408 l -0.0433,0.0239 z"
         id="path1761" />
      <path
         d="m 110.11914,119.89266 3.92198,-1.10077 q -0.13777,-0.49085 -0.38848,-0.81633 -0.24938,-0.32071 -0.57226,-0.48199 -0.312,-0.15919 -0.68245,-0.1786 -0.37522,-0.0181 -0.78505,0.097 -0.54326,0.15247 -1.0311,0.52073 -0.49127,0.37437 -0.66593,0.64958 l -0.0477,0.0134 -0.27419,-0.97692 q 0.39922,-0.31768 0.83489,-0.57877 0.43566,-0.26108 0.9551,-0.40687 1.3248,-0.37182 2.26884,0.13434 0.94538,0.51094 1.31587,1.83097 0.36648,1.30574 -0.12824,2.27227 -0.49948,0.96787 -1.66225,1.29422 -1.077,0.30228 -1.83494,-0.16359 -0.7627,-0.46452 -1.08772,-1.62253 z m 1.06468,0.44146 q 0.20272,0.70395 0.6637,0.99098 0.45622,0.28837 1.17104,0.0877 0.71958,-0.20197 1.02944,-0.74647 0.30509,-0.54316 0.18572,-1.18826 z"
         id="path1763" />
      <path
         d="m 99.094971,123.71057 3.713559,0.31691 0.17676,-2.07131 -3.190799,-0.27229 0.07407,-0.86798 3.190799,0.2723 0.30176,-3.53602 0.97647,0.0833 -0.62666,7.34328 -4.690032,-0.40024 z"
         id="path1765" />
      <path
         d="m 95.015589,115.72046 0.881473,0.2823 -0.17965,0.56094 q 0.143509,-0.0424 0.393,-0.1236 0.243268,-0.078 0.458992,-0.10247 0.256269,-0.0375 0.566454,-0.0161 0.311694,0.0167 0.698222,0.14046 0.711778,0.22796 1.055756,0.85785 0.343979,0.6299 0.109981,1.36053 -0.191728,0.59865 -0.564025,0.8848 -0.37852,0.28935 -0.922545,0.349 -0.548739,0.0581 -1.246961,-0.0823 -0.698222,-0.14046 -1.483357,-0.35034 l -0.04378,0.1367 q -0.09662,0.30168 -0.05161,0.53438 0.0403,0.23119 0.202043,0.40773 0.153828,0.1688 0.405721,0.29105 0.251894,0.12225 0.539433,0.21434 0.348818,0.11172 0.807964,0.15482 0.457636,0.0478 0.970728,0.0199 l 0.04714,0.0151 -0.288346,0.90032 q -0.281902,-0.0123 -0.799307,-0.0845 -0.517405,-0.0722 -0.993495,-0.22463 -0.556224,-0.17814 -0.936128,-0.40376 -0.386127,-0.22241 -0.616854,-0.54058 -0.227522,-0.31194 -0.272871,-0.70586 -0.04535,-0.39393 0.117696,-0.90301 z m 0.466315,1.57859 -0.469505,1.46598 q 0.412931,0.10626 0.979538,0.23575 0.561893,0.12799 0.911112,0.14108 0.416537,0.0139 0.726199,-0.14162 0.308152,-0.15078 0.436473,-0.55145 0.144928,-0.45252 -0.0545,-0.77105 -0.200934,-0.31382 -0.761872,-0.49348 -0.466662,-0.14945 -0.910558,-0.0941 -0.445405,0.06 -0.856891,0.20891 z"
         id="path1767" />
      <path
         d="m 89.501782,112.50778 0.784163,0.50096 -0.330424,0.51722 q 0.596107,-0.0597 1.065579,0.005 0.469473,0.065 0.907437,0.34478 0.734111,0.46899 0.857753,1.17644 0.120978,0.71162 -0.433282,1.5792 l -1.931916,3.02404 -0.784163,-0.50097 1.694756,-2.65281 q 0.2265,-0.35454 0.355679,-0.63029 0.126514,-0.27159 0.132648,-0.52023 0.0046,-0.25547 -0.121434,-0.45348 -0.126063,-0.198 -0.468092,-0.41651 -0.304489,-0.19452 -0.764461,-0.26518 -0.464143,-0.0733 -0.934193,-0.0271 l -2.222369,3.47868 -0.784164,-0.50096 z"
         id="path1769" />
      <path
         d="m 87.493507,110.57603 0.668259,0.64754 -5.359443,5.5309 -0.668258,-0.64754 z"
         id="path1771" />
      <path
         d="m 84.475188,106.96037 q 0.212768,0.16837 0.435415,0.39119 0.219678,0.21885 0.365122,0.41294 0.507569,0.6773 0.407346,1.30289 -0.100223,0.62559 -0.904272,1.22814 l -2.352734,1.76314 0.376967,0.50302 -0.625812,0.46899 -0.376966,-0.50303 -1.271427,0.95281 -0.558029,-0.74464 1.271427,-0.95281 -1.151677,-1.5368 0.625811,-0.46898 1.151677,1.5368 2.016063,-1.51083 q 0.348553,-0.26121 0.534722,-0.42546 0.182208,-0.16129 0.281286,-0.38398 0.09313,-0.20587 0.05559,-0.41278 -0.04447,-0.2079 -0.278957,-0.52081 -0.136539,-0.18219 -0.336442,-0.34165 -0.203864,-0.15648 -0.304812,-0.21691 l -0.02968,-0.0396 z"
         id="path1773" />
      <path
         d="m 77.811895,107.99331 0.481588,0.93228 -0.857518,0.44297 -0.481589,-0.93228 z m 5.761639,-2.90945 0.427069,0.82673 -4.912041,2.53743 -0.427069,-0.82674 z"
         id="path1775" />
      <path
         d="m 79.015933,99.592347 1.000014,3.948873 q 0.494209,-0.12515 0.825999,-0.36746 0.326992,-0.24109 0.496486,-0.55972 0.167127,-0.30783 0.196011,-0.67766 0.02767,-0.37463 -0.07683,-0.78727 -0.13852,-0.54699 -0.494171,-1.0441 -0.361665,-0.500689 -0.632322,-0.682334 l -0.01215,-0.04798 0.98362,-0.249092 q 0.307359,0.40722 0.557202,0.84943 0.249843,0.442206 0.382287,0.965206 0.337794,1.33388 -0.192375,2.26466 -0.534967,0.93198 -1.864053,1.26856 -1.314692,0.33294 -2.268241,-0.18636 -0.954764,-0.52409 -1.251245,-1.69484 -0.274609,-1.08438 0.210506,-1.83015 0.4839,-0.75056 1.649849,-1.045822 z m -0.468572,1.053033 q -0.708911,0.18463 -1.007644,0.63812 -0.299949,0.44868 -0.117686,1.1684 0.183477,0.72452 0.71987,1.04821 0.535177,0.3189 1.183113,0.21608 z"
         id="path1777" />
      <path
         d="m 77.193644,93.931305 -0.0013,0.04948 q -0.05486,0.206533 -0.07977,0.403939 -0.02974,0.19233 -0.03665,0.459519 -0.01114,0.430472 0.171451,0.836251 0.177646,0.405652 0.469865,0.784562 l 3.923725,0.101575 -0.02408,0.930215 -5.526862,-0.143077 0.02408,-0.930214 0.816412,0.02113 q -0.430969,-0.565698 -0.603156,-0.991013 -0.177006,-0.430392 -0.165606,-0.870759 0.0063,-0.24245 0.02394,-0.350921 0.01271,-0.108598 0.05299,-0.325412 z"
         id="path1779" />
    </g>
    <path
       d="m 132.67503,104.01852 a 23.245535,22.723817 0 0 1 -23.24554,22.72383 23.245535,22.723817 0 0 1 -23.245545,-22.72383 23.245535,22.723817 0 0 1 23.245545,-22.72381 23.245535,22.723817 0 0 1 23.24554,22.72381 z"
       style="fill:#999999;fill-opacity:1;stroke:none;stroke-width:0.409232;stroke-miterlimit:4;stroke-dasharray:none;stroke-opacity:1"
       id="path1989" />
    <path
       id="path1996"
       style="fill:#808080;fill-opacity:1;stroke:none;stroke-width:0.125542;stroke-miterlimit:4;stroke-dasharray:none;stroke-opacity:1"
       d="m 119.35137,87.16041 a 9.87463,5.0343426 0 0 1 -9.87464,5.03434 9.87463,5.0343426 0 0 1 -9.874633,-5.03434 9.87463,5.0343426 0 0 1 9.874633,-5.03435 9.87463,5.0343426 0 0 1 9.87464,5.03435 z" />
    <path
       d="m 117.10513,86.8371 a 8.2317908,3.4639976 0 0 1 -8.23181,3.464 8.2317908,3.4639976 0 0 1 -8.23178,-3.464 8.2317908,3.4639976 0 0 1 8.23178,-3.464 8.2317908,3.4639976 0 0 1 8.23181,3.464 z"
       style="fill:#4d4d4d;fill-opacity:1;stroke:none;stroke-width:0.0950815;stroke-miterlimit:4;stroke-dasharray:none;stroke-opacity:1"
       id="path1998" />
    <path
       d="m 101.85372,103.03262 a 2.6626084,5.0343426 0 0 1 -2.662613,5.03434 2.6626084,5.0343426 0 0 1 -2.66261,-5.03434 2.6626084,5.0343426 0 0 1 2.66261,-5.03434 2.6626084,5.0343426 0 0 1 2.662613,5.03434 z"
       style="fill:#808080;fill-opacity:1;stroke:none;stroke-width:0.0651906;stroke-miterlimit:4;stroke-dasharray:none;stroke-opacity:1"
       id="path2000" />
    <path
       id="path2002"
       style="fill:#4d4d4d;fill-opacity:1;stroke:none;stroke-width:0.0493729;stroke-miterlimit:4;stroke-dasharray:none;stroke-opacity:1"
       d="m 101.24804,102.70931 a 2.219631,3.4639976 0 0 1 -2.219633,3.464 2.219631,3.4639976 0 0 1 -2.21963,-3.464 2.219631,3.4639976 0 0 1 2.21963,-3.464 2.219631,3.4639976 0 0 1 2.219633,3.464 z" />
    <path
       id="path2004"
       style="fill:#808080;fill-opacity:1;stroke:none;stroke-width:0.0651906;stroke-miterlimit:4;stroke-dasharray:none;stroke-opacity:1"
       d="m 125.10617,95.52108 a 2.6626084,5.0343426 0 0 1 -2.66261,5.03434 2.6626084,5.0343426 0 0 1 -2.6626,-5.03434 2.6626084,5.0343426 0 0 1 2.6626,-5.03434 2.6626084,5.0343426 0 0 1 2.66261,5.03434 z" />
    <path
       d="m 124.5005,95.19777 a 2.219631,3.4639976 0 0 1 -2.21964,3.464 2.219631,3.4639976 0 0 1 -2.21963,-3.464 2.219631,3.4639976 0 0 1 2.21963,-3.464 2.219631,3.4639976 0 0 1 2.21964,3.464 z"
       style="fill:#4d4d4d;fill-opacity:1;stroke:none;stroke-width:0.0493729;stroke-miterlimit:4;stroke-dasharray:none;stroke-opacity:1"
       id="path2006" />
    <path
       d="m 113.54676,119.42174 a 2.6626084,2.9497994 0 0 1 -2.66261,2.94981 2.6626084,2.9497994 0 0 1 -2.6626,-2.94981 2.6626084,2.9497994 0 0 1 2.6626,-2.94979 2.6626084,2.9497994 0 0 1 2.66261,2.94979 z"
       style="fill:#808080;fill-opacity:1;stroke:none;stroke-width:0.049901;stroke-miterlimit:4;stroke-dasharray:none;stroke-opacity:1"
       id="path2008" />
    <path
       id="path2010"
       style="fill:#4d4d4d;fill-opacity:1;stroke:none;stroke-width:0.0377932;stroke-miterlimit:4;stroke-dasharray:none;stroke-opacity:1"
       d="m 112.94109,119.23231 a 2.219631,2.0296786 0 0 1 -2.21964,2.02967 2.219631,2.0296786 0 0 1 -2.21963,-2.02967 2.219631,2.0296786 0 0 1 2.21963,-2.02968 2.219631,2.0296786 0 0 1 2.21964,2.02968 z" />
    <path
       id="path2012"
       style="fill:#808080;fill-opacity:1;stroke:none;stroke-width:0.049901;stroke-miterlimit:4;stroke-dasharray:none;stroke-opacity:1"
       d="m 99.581917,115.9599 a 2.6626084,2.9497994 0 0 1 -2.66261,2.9498 2.6626084,2.9497994 0 0 1 -2.662598,-2.9498 2.6626084,2.9497994 0 0 1 2.662598,-2.94979 2.6626084,2.9497994 0 0 1 2.66261,2.94979 z" />
    <path
       d="m 98.976247,115.77047 a 2.219631,2.0296786 0 0 1 -2.21964,2.02967 2.219631,2.0296786 0 0 1 -2.219628,-2.02967 2.219631,2.0296786 0 0 1 2.219628,-2.02968 2.219631,2.0296786 0 0 1 2.21964,2.02968 z"
       style="fill:#4d4d4d;fill-opacity:1;stroke:none;stroke-width:0.0377932;stroke-miterlimit:4;stroke-dasharray:none;stroke-opacity:1"
       id="path2014" />
    <path
       d="m 94.771067,97.27903 a 2.6626084,2.9497994 0 0 1 -2.66261,2.9498 2.6626084,2.9497994 0 0 1 -2.6626,-2.9498 2.6626084,2.9497994 0 0 1 2.6626,-2.94979 2.6626084,2.9497994 0 0 1 2.66261,2.94979 z"
       style="fill:#808080;fill-opacity:1;stroke:none;stroke-width:0.049901;stroke-miterlimit:4;stroke-dasharray:none;stroke-opacity:1"
       id="path2016" />
    <path
       id="path2018"
       style="fill:#4d4d4d;fill-opacity:1;stroke:none;stroke-width:0.0377932;stroke-miterlimit:4;stroke-dasharray:none;stroke-opacity:1"
       d="m 94.165397,97.0896 a 2.219631,2.0296786 0 0 1 -2.21964,2.02967 2.219631,2.0296786 0 0 1 -2.21963,-2.02967 2.219631,2.0296786 0 0 1 2.21963,-2.02968 2.219631,2.0296786 0 0 1 2.21964,2.02968 z" />
    <path
       id="path2020"
       style="fill:#808080;fill-opacity:1;stroke:none;stroke-width:0.0473081;stroke-miterlimit:4;stroke-dasharray:none;stroke-opacity:1"
       d="m 129.39942,108.60614 a 4.0408329,1.7469461 0 0 1 -4.04084,1.74694 4.0408329,1.7469461 0 0 1 -4.04082,-1.74694 4.0408329,1.7469461 0 0 1 4.04082,-1.74695 4.0408329,1.7469461 0 0 1 4.04084,1.74695 z" />
    <path
       d="m 128.48024,108.49395 a 3.3685607,1.2020272 0 0 1 -3.36858,1.20202 3.3685607,1.2020272 0 0 1 -3.36856,-1.20202 3.3685607,1.2020272 0 0 1 3.36856,-1.20203 3.3685607,1.2020272 0 0 1 3.36858,1.20203 z"
       style="fill:#4d4d4d;fill-opacity:1;stroke:none;stroke-width:0.0358294;stroke-miterlimit:4;stroke-dasharray:none;stroke-opacity:1"
       id="path2022" />
    <path
       id="path2024"
       style="fill:#808080;fill-opacity:1;stroke:none;stroke-width:0.0809342;stroke-miterlimit:4;stroke-dasharray:none;stroke-opacity:1"
       d="m 113.26882,100.54494 a 6.3954954,3.2305032 36.451118 0 1 2.65964,6.28405 6.3954954,3.2305032 36.451118 0 1 -7.29534,-1.70059 6.3954954,3.2305032 36.451118 0 1 -2.65964,-6.28406 6.3954954,3.2305032 36.451118 0 1 7.29534,1.7006 z" />
    <path
       d="m 112.42191,100.80986 a 4.4081254,2.6884302 34.766295 0 1 1.49264,4.65748 4.4081254,2.6884302 34.766295 0 1 -5.35711,-0.83657 4.4081254,2.6884302 34.766295 0 1 -1.49265,-4.65746 4.4081254,2.6884302 34.766295 0 1 5.35712,0.83655 z"
       style="fill:#4d4d4d;fill-opacity:1;stroke:none;stroke-width:0.0612966;stroke-miterlimit:4;stroke-dasharray:none;stroke-opacity:1"
       id="path2026" />
    <path
       transform="matrix(1,0,0,1.0655838,4.5410719,5.2381186)"
       id="path2028"
       style="opacity:0.335017;fill:#333333;fill-opacity:1;stroke:none;stroke-width:0.34721;stroke-miterlimit:4;stroke-dasharray:none;stroke-opacity:1;filter:url(#filter2034)"
       d="M 125.6771,92.70074 A 20.78869,18.291151 0 0 1 104.88841,110.99189 20.78869,18.291151 0 0 1 84.099718,92.70074 20.78869,18.291151 0 0 1 104.88841,74.409589 20.78869,18.291151 0 0 1 125.6771,92.70074 Z" />
    <path
       id="rect1874"
       style="fill:#666666;stroke-width:0.32953"
       d="m 95.347807,138.43627 h 29.241573 c 1.00984,0 1.82282,0.81298 1.82282,1.82282 v 37.47478 c 0,1.00984 -0.81298,1.82282 -1.82282,1.82282 H 95.347807 c -1.009845,0 -1.822825,-0.81298 -1.822825,-1.82282 v -37.47478 c 0,-1.00984 0.81298,-1.82282 1.822825,-1.82282 z" />
    <path
       id="rect2114"
       style="fill:#b3b3b3;stroke-width:0.283858"
       d="M 97.361787,141.29984 H 122.5754 c 0.8692,0 1.56895,0.69975 1.56895,1.56895 v 32.25539 c 0,0.86919 -0.69975,1.56894 -1.56895,1.56894 H 97.361787 c -0.86919,0 -1.568945,-0.69975 -1.568945,-1.56894 v -32.25539 c 0,-0.8692 0.699755,-1.56895 1.568945,-1.56895 z" />
  </g>
  <metadata
     id="metadata1029">
    <rdf:RDF>
      <cc:Work
         rdf:about="">
        <dc:title>Spaceship_SpaceFaultier</dc:title>
        <dc:date>19.03.2019</dc:date>
        <dc:creator>
          <cc:Agent>
            <dc:title>PagDev</dc:title>
          </cc:Agent>
        </dc:creator>
        <dc:rights>
          <cc:Agent>
            <dc:title>PagDev</dc:title>
          </cc:Agent>
        </dc:rights>
        <dc:publisher>
          <cc:Agent>
            <dc:title>PagDev</dc:title>
          </cc:Agent>
        </dc:publisher>
        <dc:source>https://pagdev.de.cool/</dc:source>
        <dc:language>German</dc:language>
        <dc:subject>
          <rdf:Bag>
            <rdf:li>Spaceship_SpaceFaultier</rdf:li>
          </rdf:Bag>
        </dc:subject>
        <dc:contributor>
          <cc:Agent>
            <dc:title>PagDev/DarkCronyx</dc:title>
          </cc:Agent>
        </dc:contributor>
        <dc:description>Spaceship_SpaceFaultier</dc:description>
      </cc:Work>
    </rdf:RDF>
  </metadata>
</svg>
